*********** The.Kid.2010.DVDRiP.XviD.OPTIONAL-NORDIC_SUB-Zen_Bud ************


Format                           : AVI
File size                        : 1 006 MiB
Duration                         : 1h 46mn
Overall bit rate                 : 1 317 Kbps

Video

Format                           : MPEG-4 Visual
Codec ID/Hint                    : XviD
Duration                         : 1h 46mn
Bit rate                         : 1 176 Kbps
Width                            : 720 pixels
Height                           : 576 pixels
Display aspect ratio             : 16:9
Stream size                      : 898 MiB (89%)
Writing library                  : XviD 1.1.2 (UTC 2006-11-01)

Audio

Format                           : MPEG Audio
Codec ID/Hint                    : MP3
Duration                         : 1h 46mn
Bit rate                         : 128 Kbps
Channel(s)                       : 2 channels
Sampling rate                    : 48.0 KHz
Stream size                      : 97.7 MiB (10%)
Writing library                  : LAME3.98
Language                         : English

Text #1
Language                         : Finnish

Text #2
Language                         : Norwegian

Text #3
Language                         : Swedish

Text #4
Language                         : Danish


About Kevin Lewis who grew up in poverty but
 survived to make a better life for himself and his family. 